<?xml version="1.0" encoding="utf-8"?>
<!-- Generator: Adobe Illustrator 15.0.2, SVG Export Plug-In . SVG Version: 6.00 Build 0)  -->
<!DOCTYPE svg PUBLIC "-//W3C//DTD SVG 1.1//EN" "http://www.w3.org/Graphics/SVG/1.1/DTD/svg11.dtd">
<svg version="1.1" id="Calque_1" xmlns="http://www.w3.org/2000/svg" xmlns:xlink="http://www.w3.org/1999/xlink" x="0px" y="0px"
	 width="80px" height="80px" viewBox="0 0 80 80" enable-background="new 0 0 80 80" xml:space="preserve">
<g display="none">
	<path display="inline" d="M41.5,2.333c-13.439,0-24.333,10.895-24.333,24.334c0,4.211,1.07,8.172,2.953,11.627l0,0l21.382,39.373
		L61.955,40H41.5V2.333z"/>
	<path display="inline" d="M67.835,24.334C67.835,10.895,56.939,0,43.5,0v37.667h20.455l0.927-1.706
		C66.766,32.506,67.835,28.545,67.835,24.334z"/>
</g>
<polygon opacity="0.5" fill="#FFFBFF" points="44.203,69.977 9.25,53.163 35.797,36.571 70.75,53.384 "/>
<polygon opacity="0.75" fill="#FFFBFF" points="44.203,56.702 9.25,39.889 35.797,23.298 70.75,40.11 "/>
<polygon fill="#FFFBFF" points="44.203,43.43 9.25,26.616 35.797,10.024 70.75,26.837 "/>
</svg>
