<?xml version="1.0" encoding="utf-8"?>
<!-- Generator: Adobe Illustrator 15.0.2, SVG Export Plug-In . SVG Version: 6.00 Build 0)  -->
<!DOCTYPE svg PUBLIC "-//W3C//DTD SVG 1.1//EN" "http://www.w3.org/Graphics/SVG/1.1/DTD/svg11.dtd">
<svg version="1.1" id="Calque_1" xmlns="http://www.w3.org/2000/svg" xmlns:xlink="http://www.w3.org/1999/xlink" x="0px" y="0px"
	 width="80px" height="28px" viewBox="0 0 80 28" enable-background="new 0 0 80 28" xml:space="preserve">
<g id="Calque_1_2_">
	<g>
		<path fill="#DDDDDD" d="M9.545,12.386l2.467,7.567l2.64-7.567h1.945l2.397,7.567l2.657-7.567h2.519l-4.776,11.315h-2.223
			l-2.188-6.604l-2.536,6.604h-2.24c0,0-2.98-8.449-3.338-9.375c-0.625-1.613-1.392-1.939-1.392-1.939L9.545,12.386L9.545,12.386z"
			/>
		<path fill="#DDDDDD" d="M42.795,12.386c0.364,0,3.941-0.07,4.324-0.07c2.9,0,5.055,0.07,6.549,1.908
			c0.955,1.16,1.111,2.657,1.111,3.479c0,2.783-1.563,4.711-3.752,5.517c-1.112,0.409-2.607,0.481-4.325,0.481h-3.907V12.386
			L42.795,12.386z M45.975,22.148h0.746c2.381,0,4.654,0,4.654-4.318c0-3.998-2.449-3.998-3.855-3.998
			c-0.435,0-1.021,0.018-1.545,0.018V22.148z"/>
		<polygon fill="#DDDDDD" points="63.421,14.082 63.421,15.523 58.797,15.523 58.797,17.951 62.919,17.951 62.919,19.361 
			58.797,19.361 58.797,22.168 63.611,22.168 63.611,23.703 56.098,23.703 56.098,14.082 		"/>
		<polygon fill="#DDDDDD" points="66.93,14.082 69.262,20.805 71.964,14.082 74.148,14.082 69.572,23.703 67.623,23.703 
			63.859,14.082 		"/>
		<path fill="#DDDDDD" d="M71.878,22.748c0-0.604,0.521-1.055,1.183-1.055c0.653,0,1.172,0.451,1.172,1.055
			c0,0.605-0.519,1.061-1.172,1.061C72.396,23.807,71.878,23.355,71.878,22.748z M73.061,24.018c0.787,0,1.463-0.537,1.463-1.271
			c0-0.729-0.676-1.268-1.463-1.268c-0.799,0-1.473,0.537-1.473,1.268C71.588,23.48,72.262,24.018,73.061,24.018z M72.751,22.85
			h0.293l0.44,0.631h0.283l-0.479-0.643c0.245-0.025,0.437-0.145,0.437-0.4c0-0.289-0.195-0.416-0.593-0.416H72.5v1.459h0.251V22.85
			z M72.751,22.662v-0.451h0.347c0.176,0,0.363,0.033,0.363,0.217c0,0.227-0.193,0.232-0.408,0.232h-0.302V22.662z"/>
		<path fill="#DDDDDD" d="M38.438,14.082c0.914,0,1.646,0.189,2.193,0.575c0.583,0.411,0.873,1.022,0.873,1.832
			c0,0.854-0.348,1.454-1.042,1.813c-0.229,0.12-0.566,0.239-1.021,0.356c0.53,0.101,0.957,0.256,1.284,0.471
			c0.646,0.436,0.963,1.055,0.963,1.859c0,0.99-0.408,1.729-1.222,2.205c-0.535,0.313-1.167,0.471-1.893,0.471h-4.721v-9.583
			L38.438,14.082L38.438,14.082z M36.6,18.295h0.554c0.53,0,0.915-0.088,1.152-0.268c0.157-0.119,0.285-0.313,0.385-0.572
			c0.101-0.264,0.151-0.545,0.151-0.85c0-0.99-0.505-1.488-1.51-1.488H36.6V18.295z M36.6,22.627h0.867
			c0.969,0,1.454-0.52,1.454-1.553c0-1.18-0.566-1.77-1.703-1.77H36.6V22.627z"/>
		<polygon fill="#DDDDDD" points="32.232,14.082 32.232,15.523 27.611,15.523 27.611,17.951 31.731,17.951 31.731,19.361 
			27.611,19.361 27.611,22.168 32.426,22.168 32.426,23.703 24.911,23.703 24.911,14.082 		"/>
	</g>
	<g>
		<path fill="#DDDDDD" d="M8.342,8.331v2.364H6.933V4.273c0.939-0.033,1.488-0.05,1.647-0.05c1.253,0,2.169,0.155,2.749,0.468
			c0.581,0.313,0.87,0.799,0.87,1.459c0,1.475-1.073,2.213-3.218,2.213C8.821,8.364,8.607,8.352,8.342,8.331z M8.342,5.26v2.058
			c0.238,0.02,0.426,0.031,0.563,0.031c0.644,0,1.113-0.088,1.409-0.261c0.295-0.176,0.444-0.459,0.444-0.852
			c0-0.666-0.663-1-1.989-1C8.622,5.239,8.479,5.247,8.342,5.26z"/>
		<path fill="#DDDDDD" d="M12.784,8.333c0-0.717,0.256-1.299,0.767-1.75c0.511-0.45,1.186-0.676,2.023-0.676
			c0.881,0,1.564,0.217,2.053,0.649c0.485,0.433,0.729,1.024,0.729,1.776c0,0.75-0.248,1.346-0.745,1.787
			c-0.496,0.442-1.176,0.664-2.038,0.664c-0.883,0-1.567-0.223-2.057-0.668C13.027,9.671,12.784,9.077,12.784,8.333z M14.191,8.333
			c0,1.037,0.461,1.555,1.383,1.555c0.423,0,0.757-0.135,1.004-0.403c0.248-0.271,0.372-0.651,0.372-1.149
			c0-1.021-0.458-1.531-1.376-1.531c-0.424,0-0.759,0.136-1.008,0.404C14.316,7.477,14.191,7.852,14.191,8.333z"/>
		<path fill="#DDDDDD" d="M25.073,10.784H24.58l-1.593-2.887L21.4,10.784h-0.498l-2.188-4.787h1.425l1.165,2.805l1.42-2.805h0.487
			l1.468,2.822l1.257-2.822h1.333L25.073,10.784z"/>
		<path fill="#DDDDDD" d="M33.203,8.684h-4.145c0.025,0.375,0.185,0.666,0.477,0.874s0.686,0.312,1.181,0.312
			c0.618,0,1.087-0.129,1.408-0.391l0.524,0.838c-0.476,0.313-1.188,0.469-2.134,0.469c-0.885,0-1.585-0.209-2.099-0.629
			c-0.516-0.418-0.772-1.005-0.772-1.757c0-0.739,0.283-1.341,0.848-1.799c0.563-0.458,1.242-0.688,2.033-0.688
			c0.843,0,1.518,0.203,2.026,0.609c0.509,0.407,0.764,0.924,0.764,1.555C33.315,8.206,33.277,8.411,33.203,8.684z M29.106,7.856
			h2.851c-0.096-0.687-0.564-1.03-1.409-1.03C29.774,6.827,29.295,7.169,29.106,7.856z"/>
		<path fill="#DDDDDD" d="M37.752,7.019c-0.241-0.128-0.507-0.192-0.796-0.192c-0.314,0-0.595,0.115-0.837,0.346
			c-0.243,0.232-0.365,0.514-0.365,0.848v2.675H34.4V5.998h1.354v0.431c0.379-0.347,0.883-0.517,1.511-0.517
			c0.462,0,0.816,0.056,1.063,0.17L37.752,7.019z"/>
		<path fill="#DDDDDD" d="M44.273,8.684h-4.146c0.024,0.375,0.185,0.666,0.479,0.874c0.293,0.208,0.688,0.312,1.186,0.312
			c0.613,0,1.087-0.129,1.404-0.391l0.525,0.838c-0.479,0.313-1.188,0.469-2.139,0.469c-0.884,0-1.584-0.209-2.1-0.629
			c-0.515-0.418-0.771-1.005-0.771-1.757c0-0.739,0.282-1.341,0.848-1.799c0.564-0.459,1.241-0.688,2.033-0.688
			c0.844,0,1.518,0.203,2.024,0.609c0.512,0.407,0.767,0.924,0.767,1.555C44.389,8.206,44.35,8.411,44.273,8.684z M40.179,7.856
			h2.848c-0.092-0.687-0.563-1.03-1.406-1.03C40.848,6.827,40.367,7.169,40.179,7.856z"/>
		<path fill="#DDDDDD" d="M49.203,10.698v-0.285c-0.112,0.1-0.303,0.187-0.569,0.26c-0.266,0.076-0.543,0.111-0.827,0.111
			c-0.812,0-1.445-0.207-1.91-0.623C45.432,9.747,45.2,9.166,45.2,8.424c0-0.743,0.268-1.348,0.8-1.814
			c0.532-0.468,1.2-0.701,2.002-0.701c0.439,0,0.842,0.073,1.204,0.219V4.247l1.353-0.263v6.714H49.203L49.203,10.698L49.203,10.698
			z M49.203,7.122c-0.289-0.188-0.592-0.281-0.906-0.281c-0.541,0-0.957,0.134-1.25,0.402c-0.292,0.269-0.439,0.651-0.439,1.151
			c0,0.978,0.582,1.466,1.746,1.466c0.129,0,0.287-0.031,0.479-0.094c0.188-0.063,0.313-0.127,0.373-0.191L49.203,7.122
			L49.203,7.122z"/>
		<path fill="#DDDDDD" d="M55.598,10.534l-0.193,0.218H54.92V6.593l0.859-0.167v1.396c0.229-0.113,0.479-0.172,0.75-0.172
			c0.541,0,0.979,0.139,1.311,0.415c0.331,0.277,0.496,0.63,0.496,1.063c0,0.5-0.166,0.896-0.499,1.188
			c-0.335,0.291-0.785,0.438-1.354,0.438C56.139,10.751,55.844,10.679,55.598,10.534z M55.779,8.416v1.561
			c0.127,0.122,0.299,0.182,0.515,0.182c0.416,0,0.71-0.08,0.883-0.24c0.175-0.16,0.263-0.416,0.263-0.769
			c0-0.606-0.354-0.909-1.072-0.909C56.107,8.243,55.913,8.302,55.779,8.416z"/>
		<path fill="#DDDDDD" d="M60.663,11.177c-0.093,0.2-0.29,0.366-0.595,0.495c-0.303,0.133-0.652,0.199-1.061,0.199v-0.619
			c0.663,0,0.994-0.135,0.994-0.404c0-0.18-0.091-0.452-0.271-0.822l-1.154-2.32h0.896l1.006,2.066l0.904-2.066h0.895L60.663,11.177
			z"/>
	</g>
</g>
</svg>
