<?xml version="1.0" encoding="utf-8"?>
<!-- Generator: Adobe Illustrator 15.0.2, SVG Export Plug-In . SVG Version: 6.00 Build 0)  -->
<!DOCTYPE svg PUBLIC "-//W3C//DTD SVG 1.1//EN" "http://www.w3.org/Graphics/SVG/1.1/DTD/svg11.dtd">
<svg version="1.1" id="Calque_1" xmlns="http://www.w3.org/2000/svg" xmlns:xlink="http://www.w3.org/1999/xlink" x="0px" y="0px"
	 width="28px" height="28px" viewBox="0 0 28 28" enable-background="new 0 0 28 28" xml:space="preserve">
<path fill="#808090" d="M14,0C6.269,0,0,6.268,0,14c0,7.73,6.269,14,14,14c7.73,0,14-6.27,14-14C28,6.268,21.732,0,14,0z
	 M18.488,18.129V20.5H9.612l4.333-5.509c0.631-0.81,1.08-1.474,1.35-1.992s0.403-1.003,0.403-1.455c0-0.491-0.161-0.896-0.483-1.215
	s-0.725-0.478-1.21-0.478c-0.558,0-0.963,0.201-1.215,0.603s-0.405,1.031-0.458,1.888H9.512c-0.006-1.541,0.445-2.733,1.355-3.576
	c0.91-0.843,2.035-1.265,3.377-1.265c1.248,0,2.268,0.364,3.059,1.091c0.79,0.727,1.186,1.659,1.186,2.794
	c0,1.109-0.462,2.337-1.385,3.686l-0.758,1.105c-0.299,0.445-0.678,0.953-1.135,1.524l-0.35,0.428H18.488z"/>
</svg>
