<?xml version="1.0" encoding="utf-8"?>
<!-- Generator: Adobe Illustrator 15.0.2, SVG Export Plug-In . SVG Version: 6.00 Build 0)  -->
<!DOCTYPE svg PUBLIC "-//W3C//DTD SVG 1.1//EN" "http://www.w3.org/Graphics/SVG/1.1/DTD/svg11.dtd">
<svg version="1.1" id="Calque_1" xmlns="http://www.w3.org/2000/svg" xmlns:xlink="http://www.w3.org/1999/xlink" x="0px" y="0px"
	 width="28px" height="28px" viewBox="0 0 28 28" enable-background="new 0 0 28 28" xml:space="preserve">
<path fill="#808090" d="M14,0C6.269,0,0,6.268,0,14c0,7.73,6.269,14,14,14c7.73,0,14-6.27,14-14C28,6.268,21.732,0,14,0z
	 M17.19,19.432c-0.785,0.712-1.823,1.068-3.116,1.068c-1.2,0-2.195-0.342-2.983-1.024s-1.274-1.63-1.459-2.844h2.612
	c0.31,1.2,0.907,1.801,1.791,1.801c0.442,0,0.815-0.157,1.118-0.472c0.304-0.313,0.455-0.703,0.455-1.166
	c0-0.569-0.183-1.032-0.549-1.394s-0.836-0.541-1.41-0.541h-0.465v-2.127h0.277c0.6,0,1.082-0.148,1.444-0.443
	c0.362-0.297,0.544-0.688,0.544-1.174c0-0.44-0.144-0.816-0.431-1.13c-0.286-0.312-0.638-0.468-1.053-0.468
	c-0.97,0-1.53,0.604-1.682,1.811H9.731c0.079-1.154,0.503-2.081,1.271-2.78C11.771,7.85,12.692,7.5,13.768,7.5
	c1.181,0,2.185,0.335,3.013,1.004c0.827,0.667,1.241,1.474,1.241,2.416c0,1.029-0.508,1.957-1.523,2.788
	c0.646,0.409,1.12,0.836,1.42,1.283c0.3,0.445,0.45,0.978,0.45,1.598C18.368,17.771,17.976,18.718,17.19,19.432z"/>
</svg>
