<?xml version="1.0" encoding="utf-8"?>
<!-- Generator: Adobe Illustrator 15.0.2, SVG Export Plug-In . SVG Version: 6.00 Build 0)  -->
<!DOCTYPE svg PUBLIC "-//W3C//DTD SVG 1.1//EN" "http://www.w3.org/Graphics/SVG/1.1/DTD/svg11.dtd">
<svg version="1.1" id="Calque_1" xmlns="http://www.w3.org/2000/svg" xmlns:xlink="http://www.w3.org/1999/xlink" x="0px" y="0px"
	 width="32px" height="32px" viewBox="240 240 32 32" enable-background="new 240 240 32 32" xml:space="preserve">
<g id="shopping-cart">
	<path fill="#2D2D2D" d="M249.6,265.599c-1.761,0-3.201,1.439-3.201,3.198c0,1.763,1.44,3.203,3.201,3.203
		c1.76,0,3.2-1.44,3.2-3.203C252.8,267.038,251.36,265.599,249.6,265.599z M240,240v3.201h3.2l5.76,12.158l-2.239,3.839
		c-0.161,0.479-0.321,1.121-0.321,1.601c0,1.76,1.44,3.199,3.201,3.199h19.201v-3.199h-18.562c-0.159,0-0.319-0.161-0.319-0.318
		v-0.161l1.44-2.719h11.839c1.282,0,2.242-0.642,2.723-1.601l5.76-10.399c0.319-0.321,0.319-0.48,0.319-0.801
		c0-0.959-0.642-1.599-1.602-1.599H246.72l-1.44-3.2H240L240,240z M265.598,265.599c-1.759,0-3.198,1.439-3.198,3.198
		c0,1.763,1.439,3.203,3.198,3.203c1.763,0,3.203-1.44,3.203-3.203C268.801,267.038,267.361,265.599,265.598,265.599z"/>
</g>
</svg>
